<?xml version="1.0" standalone="no"?>
<!DOCTYPE svg PUBLIC "-//W3C//DTD SVG 1.1//EN"
  "http://www.w3.org/Graphics/SVG/1.1/DTD/svg11.dtd">
<svg version="1.1" xmlns="http://www.w3.org/2000/svg" width="1792" height="1063" viewBox="-992 -32 1792 1063" id="ccdiagram"><defs><style type="text/css">@import url(&#x27;https://fonts.googleapis.com/css?family=Open+Sans:400,700|Inconsolata:400&#x27;);</style></defs><g><g style="pointer-events:none"><g><pattern id="gridPatternMinor" x="0" y="37" width="128" height="74" patternUnits="userSpaceOnUse"><path d="M 0 0 L 128 74" stroke="#eee" stroke-width="1"></path><path d="M 128 0 L 0 74" stroke="#eee" stroke-width="1"></path></pattern><polygon points="0 0, 768 444, -192 999, -960 555" fill="url(#gridPatternMinor)"></polygon></g><polygon points="-960 555, -960 565, -192 1009, -192 999" stroke-linejoin="round" stroke="#54626f" stroke-width="1" fill="#f9f9f9"></polygon><polygon points="-192 1009, 768 454, 768 444, -192 999" stroke-linejoin="round" stroke="#54626f" stroke-width="1" fill="#e2e2e2"></polygon></g><g pointer-events=""></g><g style="pointer-events:none"><g><pattern id="gridPatternMajor" x="0" y="37" width="128" height="74" patternUnits="userSpaceOnUse"><path d="M 64 0 L 128 37 64 74 0 37 z" stroke="#54626f" stroke-width="1" fill="none"></path></pattern><polygon points="0 0, 768 444, -192 999, -960 555" fill="url(#gridPatternMajor)"></polygon></g></g><g pointer-events=""></g><g></g><g pointer-events=""></g><g pointer-events=""></g><g pointer-events="none"></g><g pointer-events=""><g><g cursor="cell"><line x1="144" y1="176" x2="326" y2="281" stroke="red" stroke-width="8" opacity="0"></line><line x1="144" y1="176" x2="326" y2="281" stroke="#000000" stroke-width="2" stroke-linecap="round"></line><polygon points="336 287, 327 272, 324 280, 310 281, 336 287" stroke-linejoin="round" fill="#000000" stroke="#000000" stroke-width="1"></polygon></g></g><g><g cursor="cell"><line x1="208" y1="509" x2="336" y2="583" stroke="red" stroke-width="8" opacity="0"></line><line x1="208" y1="509" x2="336" y2="583" stroke="#000000" stroke-width="2" stroke-linecap="round"></line></g></g><g><g cursor="cell"><line x1="208" y1="509" x2="278" y2="468" stroke="red" stroke-width="8" opacity="0"></line><line x1="208" y1="509" x2="278" y2="468" stroke="#000000" stroke-width="2" stroke-linecap="round"></line><polygon points="288 463, 262 468, 276 470, 279 477, 288 463" stroke-linejoin="round" fill="#000000" stroke="#000000" stroke-width="1"></polygon></g></g><g><g cursor="cell"><line x1="-112" y1="324" x2="-42" y2="283" stroke="red" stroke-width="8" opacity="0"></line><line x1="-112" y1="324" x2="-42" y2="283" stroke="#000000" stroke-width="2" stroke-linecap="round"></line><polygon points="-32 278, -58 283, -44 285, -41 292, -32 278" stroke-linejoin="round" fill="#000000" stroke="#000000" stroke-width="1"></polygon></g></g><g><g cursor="cell"><line x1="-528" y1="527" x2="-432" y2="472" stroke="red" stroke-width="8" opacity="0"></line><line x1="-528" y1="527" x2="-432" y2="472" stroke="#000000" stroke-width="2" stroke-linecap="round"></line></g></g><g><g cursor="cell"><line x1="192" y1="500" x2="208" y2="509" stroke="red" stroke-width="8" opacity="0"></line><line x1="192" y1="500" x2="208" y2="509" stroke="#000000" stroke-width="2" stroke-linecap="round"></line></g></g><g><g cursor="cell"><line x1="48" y1="231" x2="144" y2="176" stroke="red" stroke-width="8" opacity="0"></line><line x1="48" y1="231" x2="144" y2="176" stroke="#000000" stroke-width="2" stroke-linecap="round"></line></g></g><g><g cursor="cell"><line x1="176" y1="305" x2="272" y2="250" stroke="red" stroke-width="8" opacity="0"></line><line x1="176" y1="305" x2="272" y2="250" stroke="#000000" stroke-width="2" stroke-linecap="round"></line></g></g><g><g cursor="cell"><line x1="16" y1="398" x2="86" y2="357" stroke="red" stroke-width="8" opacity="0"></line><line x1="16" y1="398" x2="86" y2="357" stroke="#000000" stroke-width="2" stroke-linecap="round"></line><polygon points="96 352, 70 357, 84 359, 87 366, 96 352" stroke-linejoin="round" fill="#000000" stroke="#000000" stroke-width="1"></polygon></g></g><g><g cursor="cell"><line x1="-432" y1="472" x2="-528" y2="416" stroke="red" stroke-width="8" opacity="0"></line><line x1="-432" y1="472" x2="-528" y2="416" stroke="#000000" stroke-width="2" stroke-linecap="round"></line></g></g><g><g cursor="cell"><line x1="336" y1="583" x2="406" y2="542" stroke="red" stroke-width="8" opacity="0"></line><line x1="336" y1="583" x2="406" y2="542" stroke="#000000" stroke-width="2" stroke-linecap="round"></line><polygon points="416 537, 390 542, 404 544, 407 551, 416 537" stroke-linejoin="round" fill="#000000" stroke="#000000" stroke-width="1"></polygon></g></g><g><g cursor="cell"><line x1="496" y1="490" x2="592" y2="435" stroke="red" stroke-width="8" opacity="0"></line><line x1="496" y1="490" x2="592" y2="435" stroke="#000000" stroke-width="2" stroke-linecap="round"></line></g></g><g><g cursor="cell"><line x1="-432" y1="472" x2="-320" y2="537" stroke="red" stroke-width="8" opacity="0"></line><line x1="-432" y1="472" x2="-320" y2="537" stroke="#000000" stroke-width="2" stroke-linecap="round"></line></g></g><g><g cursor="cell"><line x1="-528" y1="416" x2="-422" y2="355" stroke="red" stroke-width="8" opacity="0"></line><line x1="-528" y1="416" x2="-422" y2="355" stroke="#000000" stroke-width="2" stroke-linecap="round"></line><polygon points="-413 350, -438 355, -425 357, -422 364, -413 350" stroke-linejoin="round" fill="#000000" stroke="#000000" stroke-width="1"></polygon></g></g><g><g cursor="cell"><line x1="112" y1="453" x2="-112" y2="324" stroke="red" stroke-width="8" opacity="0"></line><line x1="112" y1="453" x2="-112" y2="324" stroke="#000000" stroke-width="2" stroke-linecap="round"></line></g></g><g><g cursor="cell"><line x1="-320" y1="537" x2="-214" y2="475" stroke="red" stroke-width="8" opacity="0"></line><line x1="-320" y1="537" x2="-214" y2="475" stroke="#000000" stroke-width="2" stroke-linecap="round"></line><polygon points="-205 470, -230 475, -217 477, -214 485, -205 470" stroke-linejoin="round" fill="#000000" stroke="#000000" stroke-width="1"></polygon></g></g><g><g cursor="cell"><line x1="-179" y1="470" x2="-54" y2="542" stroke="red" stroke-width="8" opacity="0"></line><line x1="-179" y1="470" x2="-54" y2="542" stroke="#000000" stroke-width="2" stroke-linecap="round"></line><polygon points="-45 548, -54 533, -57 540, -70 542, -45 548" stroke-linejoin="round" fill="#000000" stroke="#000000" stroke-width="1"></polygon></g></g><g><g cursor="cell"><line x1="592" y1="435" x2="442" y2="348" stroke="red" stroke-width="8" opacity="0"></line><line x1="592" y1="435" x2="442" y2="348" stroke="#000000" stroke-width="2" stroke-linecap="round"></line><polygon points="432 342, 441 357, 444 349, 458 348, 432 342" stroke-linejoin="round" fill="#000000" stroke="#000000" stroke-width="1"></polygon></g></g><g><g cursor="cell"><line x1="-112" y1="324" x2="16" y2="398" stroke="red" stroke-width="8" opacity="0"></line><line x1="-112" y1="324" x2="16" y2="398" stroke="#000000" stroke-width="2" stroke-linecap="round"></line></g></g><g><g cursor="cell"><line x1="128" y1="500" x2="58" y2="540" stroke="red" stroke-width="8" opacity="0"></line><line x1="128" y1="500" x2="58" y2="540" stroke="#000000" stroke-width="2" stroke-linecap="round"></line><polygon points="48 546, 74 540, 60 539, 57 531, 48 546" stroke-linejoin="round" fill="#000000" stroke="#000000" stroke-width="1"></polygon></g></g><g><g cursor="cell"><line x1="368" y1="416" x2="464" y2="361" stroke="red" stroke-width="8" opacity="0"></line><line x1="368" y1="416" x2="464" y2="361" stroke="#000000" stroke-width="2" stroke-linecap="round"></line></g></g></g><g pointer-events=""><g opacity="1"><g id="4530212e-4a67-42cc-8f39-ec16524cb251" transform="translate(0 0)"><svg x="336" y="223" height="138.272" width="127.987" viewBox="0 0 33.863287 36.58436"><path d="M.132 12.283v14.422l16.653 9.615V21.898l-4.163-7.212L4.296 9.88z" fill="#d2d2d4"></path><path d="M20.984 14.686l8.325-4.807 4.163 2.404v14.422L16.82 36.32V21.898z" fill="#b8b8bb"></path><path d="M4.296 9.88l8.326 4.806h8.326l8.326-4.806V5.07L20.948.265h-8.326L4.296 5.07zM12.853 14.686h8.326l-4.164 7.212z" fill="#ececed"></path><path d="M4.357 4.889v4.808L.193 12.1zM29.274 9.696V4.89l4.162 7.21z" fill="#d2d2d4"></path><path d="M12.706 14.686h8.327l-4.164 7.212z" fill="none" stroke="#83838a" stroke-width=".271"></path><path d="M.132 12.283v14.422l16.653 9.615V21.898l-4.163-7.212L4.296 9.88zM21.05 14.68l8.326-4.806 4.163 2.403V26.7l-16.652 9.615V21.892z" fill="none" stroke="#83838a" stroke-width=".265"></path><path d="M4.296 9.88l8.326 4.806h8.326l8.326-4.806V5.07L20.948.265h-8.326L4.296 5.07z" fill="none" stroke="#83838a" stroke-width=".265"></path><path d="M.293 26.705V12.283L4.457 5.07 12.783.265h8.327l8.326 4.806 4.163 7.212v14.422L16.946 36.32z" fill="none" stroke="#000000" stroke-width=".529"></path><g transform="matrix(.12245 0 0 .0707 332.442 -7.06)"><circle cx="-2577.924" cy="205.604" fill="none" r="58.627" stroke="#83838a" stroke-width="12"></circle><circle cx="-2577.924" cy="205.604" fill="none" r="17.743" stroke="#4286c5" stroke-width="12"></circle><circle cx="-2577.924" cy="205.604" fill="none" r="36.88" stroke="#4286c5" stroke-width="12"></circle><g stroke-linecap="round"><path d="M-2577.643 255.025v25.718" fill="#612828" fill-rule="evenodd" stroke="#4286c5" stroke-width="36"></path><path d="M-2577.643 238.713v42.124" fill="none" stroke="#ececed" stroke-width="12"></path></g></g></svg></g></g><g opacity="1"><g id="71cc3795-de14-49b3-909e-30d348807926" transform="translate(0 0)"><svg x="-48" y="173" height="113.438" width="96" viewBox="0 0 25.400052 30.013873"><g transform="translate(412.599 -86.957)"><path d="M-412.333 102.348v4.786l8.29 4.785h8.289l8.29-4.785v-4.786l-8.29-4.786h-8.29z" fill="#3c3c3c" fill-rule="evenodd"></path><path d="M-395.754 111.92l8.29-4.786v4.785l-8.29 4.786z" fill="#090909" fill-rule="evenodd"></path><path d="M-404.044 111.92h8.29v4.785h-8.29z" fill="#232323" fill-rule="evenodd"></path><path d="M-412.333 107.134v4.785l8.29 4.786v-4.786z" fill="#232323" fill-rule="evenodd"></path><path d="M-412.333 107.134l8.29 4.785h8.289l8.29-4.785M-404.044 111.92v4.785M-395.754 111.92v4.785" fill="none" stroke="#000" stroke-width=".26588"></path><path d="M-412.333 102.348v9.571l8.29 4.786h8.289l8.29-4.786v-9.571l-8.29-4.786h-8.29z" fill="none" stroke="#000000" stroke-width=".53176"></path><path d="M-412.333 97.178v4.786l8.29 4.786h8.289l8.29-4.786v-4.786l-8.29-4.786h-8.29z" fill="#3c3c3c" fill-rule="evenodd"></path><path d="M-395.754 106.75l8.29-4.786v4.786l-8.29 4.786z" fill="#090909" fill-rule="evenodd"></path><path d="M-404.044 106.75h8.29v4.786h-8.29z" fill="#232323" fill-rule="evenodd"></path><path d="M-412.333 101.964v4.786l8.29 4.786v-4.786z" fill="#232323" fill-rule="evenodd"></path><path d="M-412.333 101.964l8.29 4.786h8.289l8.29-4.786M-404.044 106.75v4.786M-395.754 106.75v4.786" fill="none" stroke="#000" stroke-width=".266"></path><path d="M-412.333 97.178v9.572l8.29 4.786h8.289l8.29-4.786v-9.572l-8.29-4.786h-8.29z" fill="none" stroke="#000000" stroke-width=".532"></path><path d="M-412.333 92.01v4.785l8.29 4.786h8.289l8.29-4.786v-4.786l-8.29-4.786h-8.29z" fill="#3c3c3c" fill-rule="evenodd"></path><path d="M-395.754 101.58l8.29-4.785v4.786l-8.29 4.786z" fill="#090909" fill-rule="evenodd"></path><path d="M-404.044 101.58h8.29v4.787h-8.29z" fill="#232323" fill-rule="evenodd"></path><path d="M-412.333 96.795v4.786l8.29 4.786v-4.786z" fill="#232323" fill-rule="evenodd"></path><path d="M-412.333 96.795l8.29 4.786h8.289l8.29-4.786M-404.044 101.58v4.787M-395.754 101.58v4.787" fill="none" stroke="#000" stroke-width=".266"></path><path d="M-412.333 92.01v9.57l8.29 4.787h8.289l8.29-4.786v-9.572l-8.29-4.786h-8.29z" fill="none" stroke="#000000" stroke-width=".532"></path><circle cx="-136.478" cy="325.284" fill="#f4b934" r="5.801" transform="scale(1.22475 .7071) rotate(45)"></circle><g style="line-height:0%" font-family="sans-serif" font-size="3.191" stroke-width=".266"><path style="line-height:1.25;-inkscape-font-specification:&#x27;Droid Serif&#x27;" d="M-399.242 93.57l.48-.601q.222-.275.177-.448-.04-.17-.467-.416l-.507-.293 1.065-.614.937.541q.825.476.92.934.1.46-.417 1.114l-3.452 4.39-1.622-.937 1.654-2.121-3.729.923-1.622-.936z" fill="#fff" font-family="Droid Serif" font-size="9.971"></path></g></g></svg></g></g><g opacity="1"><g id="cc88ecd2-9948-4a2b-b7bb-abec85a6f123" transform="translate(0 0)"><svg x="80" y="247" height="113.438" width="96" viewBox="0 0 25.400052 30.013873"><g transform="translate(412.599 -86.957)"><path d="M-412.333 102.348v4.786l8.29 4.785h8.289l8.29-4.785v-4.786l-8.29-4.786h-8.29z" fill="#3c3c3c" fill-rule="evenodd"></path><path d="M-395.754 111.92l8.29-4.786v4.785l-8.29 4.786z" fill="#090909" fill-rule="evenodd"></path><path d="M-404.044 111.92h8.29v4.785h-8.29z" fill="#232323" fill-rule="evenodd"></path><path d="M-412.333 107.134v4.785l8.29 4.786v-4.786z" fill="#232323" fill-rule="evenodd"></path><path d="M-412.333 107.134l8.29 4.785h8.289l8.29-4.785M-404.044 111.92v4.785M-395.754 111.92v4.785" fill="none" stroke="#000" stroke-width=".26588"></path><path d="M-412.333 102.348v9.571l8.29 4.786h8.289l8.29-4.786v-9.571l-8.29-4.786h-8.29z" fill="none" stroke="#000000" stroke-width=".53176"></path><path d="M-412.333 97.178v4.786l8.29 4.786h8.289l8.29-4.786v-4.786l-8.29-4.786h-8.29z" fill="#3c3c3c" fill-rule="evenodd"></path><path d="M-395.754 106.75l8.29-4.786v4.786l-8.29 4.786z" fill="#090909" fill-rule="evenodd"></path><path d="M-404.044 106.75h8.29v4.786h-8.29z" fill="#232323" fill-rule="evenodd"></path><path d="M-412.333 101.964v4.786l8.29 4.786v-4.786z" fill="#232323" fill-rule="evenodd"></path><path d="M-412.333 101.964l8.29 4.786h8.289l8.29-4.786M-404.044 106.75v4.786M-395.754 106.75v4.786" fill="none" stroke="#000" stroke-width=".266"></path><path d="M-412.333 97.178v9.572l8.29 4.786h8.289l8.29-4.786v-9.572l-8.29-4.786h-8.29z" fill="none" stroke="#000000" stroke-width=".532"></path><path d="M-412.333 92.01v4.785l8.29 4.786h8.289l8.29-4.786v-4.786l-8.29-4.786h-8.29z" fill="#3c3c3c" fill-rule="evenodd"></path><path d="M-395.754 101.58l8.29-4.785v4.786l-8.29 4.786z" fill="#090909" fill-rule="evenodd"></path><path d="M-404.044 101.58h8.29v4.787h-8.29z" fill="#232323" fill-rule="evenodd"></path><path d="M-412.333 96.795v4.786l8.29 4.786v-4.786z" fill="#232323" fill-rule="evenodd"></path><path d="M-412.333 96.795l8.29 4.786h8.289l8.29-4.786M-404.044 101.58v4.787M-395.754 101.58v4.787" fill="none" stroke="#000" stroke-width=".266"></path><path d="M-412.333 92.01v9.57l8.29 4.787h8.289l8.29-4.786v-9.572l-8.29-4.786h-8.29z" fill="none" stroke="#000000" stroke-width=".532"></path><circle cx="-136.478" cy="325.284" fill="#f4b934" r="5.801" transform="scale(1.22475 .7071) rotate(45)"></circle><g style="line-height:0%" font-family="sans-serif" font-size="3.191" stroke-width=".266"><path style="line-height:1.25;-inkscape-font-specification:&#x27;Droid Serif&#x27;" d="M-399.242 93.57l.48-.601q.222-.275.177-.448-.04-.17-.467-.416l-.507-.293 1.065-.614.937.541q.825.476.92.934.1.46-.417 1.114l-3.452 4.39-1.622-.937 1.654-2.121-3.729.923-1.622-.936z" fill="#fff" font-family="Droid Serif" font-size="9.971"></path></g></g></svg></g></g><g opacity="1"><g id="8bb3b49b-6b3a-4eba-8303-99da178a51c5" transform="translate(0 0)"><svg x="272" y="358" height="113.438" width="96" viewBox="0 0 25.400052 30.013873"><g transform="translate(412.599 -86.957)"><path d="M-412.333 102.348v4.786l8.29 4.785h8.289l8.29-4.785v-4.786l-8.29-4.786h-8.29z" fill="#3c3c3c" fill-rule="evenodd"></path><path d="M-395.754 111.92l8.29-4.786v4.785l-8.29 4.786z" fill="#090909" fill-rule="evenodd"></path><path d="M-404.044 111.92h8.29v4.785h-8.29z" fill="#232323" fill-rule="evenodd"></path><path d="M-412.333 107.134v4.785l8.29 4.786v-4.786z" fill="#232323" fill-rule="evenodd"></path><path d="M-412.333 107.134l8.29 4.785h8.289l8.29-4.785M-404.044 111.92v4.785M-395.754 111.92v4.785" fill="none" stroke="#000" stroke-width=".26588"></path><path d="M-412.333 102.348v9.571l8.29 4.786h8.289l8.29-4.786v-9.571l-8.29-4.786h-8.29z" fill="none" stroke="#000000" stroke-width=".53176"></path><path d="M-412.333 97.178v4.786l8.29 4.786h8.289l8.29-4.786v-4.786l-8.29-4.786h-8.29z" fill="#3c3c3c" fill-rule="evenodd"></path><path d="M-395.754 106.75l8.29-4.786v4.786l-8.29 4.786z" fill="#090909" fill-rule="evenodd"></path><path d="M-404.044 106.75h8.29v4.786h-8.29z" fill="#232323" fill-rule="evenodd"></path><path d="M-412.333 101.964v4.786l8.29 4.786v-4.786z" fill="#232323" fill-rule="evenodd"></path><path d="M-412.333 101.964l8.29 4.786h8.289l8.29-4.786M-404.044 106.75v4.786M-395.754 106.75v4.786" fill="none" stroke="#000" stroke-width=".266"></path><path d="M-412.333 97.178v9.572l8.29 4.786h8.289l8.29-4.786v-9.572l-8.29-4.786h-8.29z" fill="none" stroke="#000000" stroke-width=".532"></path><path d="M-412.333 92.01v4.785l8.29 4.786h8.289l8.29-4.786v-4.786l-8.29-4.786h-8.29z" fill="#3c3c3c" fill-rule="evenodd"></path><path d="M-395.754 101.58l8.29-4.785v4.786l-8.29 4.786z" fill="#090909" fill-rule="evenodd"></path><path d="M-404.044 101.58h8.29v4.787h-8.29z" fill="#232323" fill-rule="evenodd"></path><path d="M-412.333 96.795v4.786l8.29 4.786v-4.786z" fill="#232323" fill-rule="evenodd"></path><path d="M-412.333 96.795l8.29 4.786h8.289l8.29-4.786M-404.044 101.58v4.787M-395.754 101.58v4.787" fill="none" stroke="#000" stroke-width=".266"></path><path d="M-412.333 92.01v9.57l8.29 4.787h8.289l8.29-4.786v-9.572l-8.29-4.786h-8.29z" fill="none" stroke="#000000" stroke-width=".532"></path><circle cx="-136.478" cy="325.284" fill="#f4b934" r="5.801" transform="scale(1.22475 .7071) rotate(45)"></circle><g style="line-height:0%" font-family="sans-serif" font-size="3.191" stroke-width=".266"><path style="line-height:1.25;-inkscape-font-specification:&#x27;Droid Serif&#x27;" d="M-399.242 93.57l.48-.601q.222-.275.177-.448-.04-.17-.467-.416l-.507-.293 1.065-.614.937.541q.825.476.92.934.1.46-.417 1.114l-3.452 4.39-1.622-.937 1.654-2.121-3.729.923-1.622-.936z" fill="#fff" font-family="Droid Serif" font-size="9.971"></path></g></g></svg></g></g><g opacity="1"><g id="a81677e2-7047-44cd-a3ee-86b633f607a2" transform="translate(0 0)"><svg x="400" y="432" height="113.438" width="96" viewBox="0 0 25.400052 30.013873"><g transform="translate(412.599 -86.957)"><path d="M-412.333 102.348v4.786l8.29 4.785h8.289l8.29-4.785v-4.786l-8.29-4.786h-8.29z" fill="#3c3c3c" fill-rule="evenodd"></path><path d="M-395.754 111.92l8.29-4.786v4.785l-8.29 4.786z" fill="#090909" fill-rule="evenodd"></path><path d="M-404.044 111.92h8.29v4.785h-8.29z" fill="#232323" fill-rule="evenodd"></path><path d="M-412.333 107.134v4.785l8.29 4.786v-4.786z" fill="#232323" fill-rule="evenodd"></path><path d="M-412.333 107.134l8.29 4.785h8.289l8.29-4.785M-404.044 111.92v4.785M-395.754 111.92v4.785" fill="none" stroke="#000" stroke-width=".26588"></path><path d="M-412.333 102.348v9.571l8.29 4.786h8.289l8.29-4.786v-9.571l-8.29-4.786h-8.29z" fill="none" stroke="#000000" stroke-width=".53176"></path><path d="M-412.333 97.178v4.786l8.29 4.786h8.289l8.29-4.786v-4.786l-8.29-4.786h-8.29z" fill="#3c3c3c" fill-rule="evenodd"></path><path d="M-395.754 106.75l8.29-4.786v4.786l-8.29 4.786z" fill="#090909" fill-rule="evenodd"></path><path d="M-404.044 106.75h8.29v4.786h-8.29z" fill="#232323" fill-rule="evenodd"></path><path d="M-412.333 101.964v4.786l8.29 4.786v-4.786z" fill="#232323" fill-rule="evenodd"></path><path d="M-412.333 101.964l8.29 4.786h8.289l8.29-4.786M-404.044 106.75v4.786M-395.754 106.75v4.786" fill="none" stroke="#000" stroke-width=".266"></path><path d="M-412.333 97.178v9.572l8.29 4.786h8.289l8.29-4.786v-9.572l-8.29-4.786h-8.29z" fill="none" stroke="#000000" stroke-width=".532"></path><path d="M-412.333 92.01v4.785l8.29 4.786h8.289l8.29-4.786v-4.786l-8.29-4.786h-8.29z" fill="#3c3c3c" fill-rule="evenodd"></path><path d="M-395.754 101.58l8.29-4.785v4.786l-8.29 4.786z" fill="#090909" fill-rule="evenodd"></path><path d="M-404.044 101.58h8.29v4.787h-8.29z" fill="#232323" fill-rule="evenodd"></path><path d="M-412.333 96.795v4.786l8.29 4.786v-4.786z" fill="#232323" fill-rule="evenodd"></path><path d="M-412.333 96.795l8.29 4.786h8.289l8.29-4.786M-404.044 101.58v4.787M-395.754 101.58v4.787" fill="none" stroke="#000" stroke-width=".266"></path><path d="M-412.333 92.01v9.57l8.29 4.787h8.289l8.29-4.786v-9.572l-8.29-4.786h-8.29z" fill="none" stroke="#000000" stroke-width=".532"></path><circle cx="-136.478" cy="325.284" fill="#f4b934" r="5.801" transform="scale(1.22475 .7071) rotate(45)"></circle><g style="line-height:0%" font-family="sans-serif" font-size="3.191" stroke-width=".266"><path style="line-height:1.25;-inkscape-font-specification:&#x27;Droid Serif&#x27;" d="M-399.242 93.57l.48-.601q.222-.275.177-.448-.04-.17-.467-.416l-.507-.293 1.065-.614.937.541q.825.476.92.934.1.46-.417 1.114l-3.452 4.39-1.622-.937 1.654-2.121-3.729.923-1.622-.936z" fill="#fff" font-family="Droid Serif" font-size="9.971"></path></g></g></svg></g></g><g opacity="1"><g id="7cb9ac30-afe2-4aa1-ae0f-1d1776d71a89" transform="translate(0 0)"><svg x="112" y="395" height="113.438" width="96" viewBox="0 0 25.400052 30.013873"><g transform="translate(412.599 -86.957)"><path d="M-412.333 102.348v4.786l8.29 4.785h8.289l8.29-4.785v-4.786l-8.29-4.786h-8.29z" fill="#3c3c3c" fill-rule="evenodd"></path><path d="M-395.754 111.92l8.29-4.786v4.785l-8.29 4.786z" fill="#090909" fill-rule="evenodd"></path><path d="M-404.044 111.92h8.29v4.785h-8.29z" fill="#232323" fill-rule="evenodd"></path><path d="M-412.333 107.134v4.785l8.29 4.786v-4.786z" fill="#232323" fill-rule="evenodd"></path><path d="M-412.333 107.134l8.29 4.785h8.289l8.29-4.785M-404.044 111.92v4.785M-395.754 111.92v4.785" fill="none" stroke="#000" stroke-width=".26588"></path><path d="M-412.333 102.348v9.571l8.29 4.786h8.289l8.29-4.786v-9.571l-8.29-4.786h-8.29z" fill="none" stroke="#000000" stroke-width=".53176"></path><path d="M-412.333 97.178v4.786l8.29 4.786h8.289l8.29-4.786v-4.786l-8.29-4.786h-8.29z" fill="#3c3c3c" fill-rule="evenodd"></path><path d="M-395.754 106.75l8.29-4.786v4.786l-8.29 4.786z" fill="#090909" fill-rule="evenodd"></path><path d="M-404.044 106.75h8.29v4.786h-8.29z" fill="#232323" fill-rule="evenodd"></path><path d="M-412.333 101.964v4.786l8.29 4.786v-4.786z" fill="#232323" fill-rule="evenodd"></path><path d="M-412.333 101.964l8.29 4.786h8.289l8.29-4.786M-404.044 106.75v4.786M-395.754 106.75v4.786" fill="none" stroke="#000" stroke-width=".266"></path><path d="M-412.333 97.178v9.572l8.29 4.786h8.289l8.29-4.786v-9.572l-8.29-4.786h-8.29z" fill="none" stroke="#000000" stroke-width=".532"></path><path d="M-412.333 92.01v4.785l8.29 4.786h8.289l8.29-4.786v-4.786l-8.29-4.786h-8.29z" fill="#3c3c3c" fill-rule="evenodd"></path><path d="M-395.754 101.58l8.29-4.785v4.786l-8.29 4.786z" fill="#090909" fill-rule="evenodd"></path><path d="M-404.044 101.58h8.29v4.787h-8.29z" fill="#232323" fill-rule="evenodd"></path><path d="M-412.333 96.795v4.786l8.29 4.786v-4.786z" fill="#232323" fill-rule="evenodd"></path><path d="M-412.333 96.795l8.29 4.786h8.289l8.29-4.786M-404.044 101.58v4.787M-395.754 101.58v4.787" fill="none" stroke="#000" stroke-width=".266"></path><path d="M-412.333 92.01v9.57l8.29 4.787h8.289l8.29-4.786v-9.572l-8.29-4.786h-8.29z" fill="none" stroke="#000000" stroke-width=".532"></path><circle cx="-136.478" cy="325.284" fill="#f4b934" r="5.801" transform="scale(1.22475 .7071) rotate(45)"></circle><g style="line-height:0%" font-family="sans-serif" font-size="3.191" stroke-width=".266"><path style="line-height:1.25;-inkscape-font-specification:&#x27;Droid Serif&#x27;" d="M-399.242 93.57l.48-.601q.222-.275.177-.448-.04-.17-.467-.416l-.507-.293 1.065-.614.937.541q.825.476.92.934.1.46-.417 1.114l-3.452 4.39-1.622-.937 1.654-2.121-3.729.923-1.622-.936z" fill="#fff" font-family="Droid Serif" font-size="9.971"></path></g></g></svg></g></g><g opacity="1"><g id="1464199e-6f95-4abc-9051-74e04f4956ba" transform="translate(0 0)"><svg x="-451" y="240" height="115.695" width="100.625" viewBox="0 0 26.623829 30.611019"><path d="M13.312.306v15l12.99-7.5z" fill="#4286c5" fill-rule="evenodd"></path><path d="M.322 7.806l12.99 7.5v-15z" fill="#26527b" fill-rule="evenodd"></path><path d="M13.312.306v15" fill="none" stroke="#318bce" stroke-width=".265"></path><path d="M13.312 15.306l12.99-7.5-6.495 18.75-6.495 3.75z" fill="#26527b" fill-rule="evenodd"></path><path d="M.322 7.806l12.99 7.5v15l-6.495-3.75z" fill="#326ca2" fill-rule="evenodd"></path><path d="M.322 7.806l12.99 7.5 12.99-7.5-12.99 7.5v15" fill="none" stroke="#5aa2d8" stroke-width=".265"></path><path d="M13.312.306l-12.99 7.5 6.495 18.75 6.495 3.75 6.495-3.75 6.495-18.75z" fill="none" stroke="#000000" stroke-width=".529"></path></svg></g></g><g opacity="1"><g id="8f31646c-2865-4a62-8916-6c823dd6ee3a" transform="translate(0 0)"><svg x="-243" y="361" height="115.695" width="100.625" viewBox="0 0 26.623829 30.611019"><path d="M13.312.306v15l12.99-7.5z" fill="#4286c5" fill-rule="evenodd"></path><path d="M.322 7.806l12.99 7.5v-15z" fill="#26527b" fill-rule="evenodd"></path><path d="M13.312.306v15" fill="none" stroke="#318bce" stroke-width=".265"></path><path d="M13.312 15.306l12.99-7.5-6.495 18.75-6.495 3.75z" fill="#26527b" fill-rule="evenodd"></path><path d="M.322 7.806l12.99 7.5v15l-6.495-3.75z" fill="#326ca2" fill-rule="evenodd"></path><path d="M.322 7.806l12.99 7.5 12.99-7.5-12.99 7.5v15" fill="none" stroke="#5aa2d8" stroke-width=".265"></path><path d="M13.312.306l-12.99 7.5 6.495 18.75 6.495 3.75 6.495-3.75 6.495-18.75z" fill="none" stroke="#000000" stroke-width=".529"></path></svg></g></g><g opacity="1"><g id="733557db-fd09-4529-9c32-6af3d4a16b86" transform="translate(0 0)"><svg x="-83" y="525" height="97.168" width="167.64" viewBox="0 0 44.354709 25.709038"><path d="M33.976 7.743l-2.77-1.6 2.63-.72 2.634-.72-1.248 1.52z" fill="#f4b934" stroke="#000000" stroke-linecap="round" stroke-width=".265"></path><path d="M16.763 18.904l6.761 6.491 20.284-11.71-6.761-6.415" fill="#ececed" fill-rule="evenodd"></path><path d="M28.9 10.628l-2.77-1.6 2.63-.72 2.635-.72-1.25 1.52zM23.945 13.586l-2.77-1.6 2.631-.72 2.634-.72-1.249 1.52zM18.781 16.527l-2.77-1.6 2.631-.72 2.634-.72-1.249 1.52zM13.748 19.422l-2.77-1.6 2.631-.72 2.634-.719-1.249 1.52zM8.655 22.371l-2.77-1.6 2.631-.72 2.634-.72-1.249 1.52z" fill="#f4b934" stroke="#000000" stroke-linecap="round" stroke-width=".265"></path><path d="M16.763 18.98v2.512l6.761 3.903z" fill="#d2d2d4" fill-rule="evenodd"></path><path d="M.364 12.17l6.87 1.436L27.402 1.74 20.84.228z" fill="#ececed" fill-rule="evenodd"></path><path d="M16.872 18.989l6.76 6.415" fill="none" stroke="#83838a" stroke-width=".265"></path><path d="M16.872 21.5l6.76 3.904 20.284-11.711-6.76-6.453-20.284 11.71z" fill="none" stroke="#000000" stroke-width=".529"></path><path d="M7.234 13.666L.472 12.273l6.762 3.904z" fill="#d2d2d4" fill-rule="evenodd"></path><path d="M7.364 13.575v2.618l20.284-11.61v-2.8z" fill="#b8b8bb" fill-rule="evenodd"></path><path d="M7.288 13.628v2.549" fill="none" stroke="#83838a" stroke-width=".265"></path><path d="M.472 12.273l6.762 3.904 20.283-11.71V1.811L7.196 13.632z" fill="none"></path><path d="M.603 12.298l6.761 1.305 20.087-11.69" fill="none" stroke="#83838a" stroke-width=".265"></path><path d="M.525 12.286l6.84 3.948 20.283-11.71V1.864L20.887.282z" fill="none" stroke="#000000" stroke-width=".529"></path></svg></g></g><g opacity="1"><g id="dfb812f1-6db9-4966-a3ad-b0bf497e4264" transform="translate(0 0)"><svg x="-625" y="444" height="139.076" width="97" viewBox="0 0 25.664585 36.797279"><path d="M4.457 2.682v4.836l4.187 2.418h8.376l4.188-2.418V2.682L17.02.265H8.644z" fill="none" stroke="#000" stroke-width=".269"></path><path d="M.269 5.1v4.836l8.375 4.836h8.376l8.376-4.836V5.1L17.02.265H8.644z" fill="#ececed" fill-rule="evenodd"></path><path d="M17.02 14.772l8.376-4.836v21.76l-8.376 4.837z" fill="#b8b8bb" fill-rule="evenodd"></path><path d="M8.644 14.772h8.376v21.76H8.644zM.269 9.936v21.76l8.375 4.837V14.772z" fill="#d2d2d4" fill-rule="evenodd"></path><g fill="none" stroke="#83838a"><path d="M.269 9.936l8.375 4.836h8.376l8.376-4.836M8.644 14.772v21.76M17.02 14.772v21.76" stroke-width=".26865"></path></g><path d="M8.644 14.772V9.936h8.376v4.836z" fill="none" stroke="#83838a" stroke-width=".269"></path><path d="M21.208 7.518V2.682L25.396 5.1v4.836" fill="#d3d3d3" fill-rule="evenodd" stroke="#83838a" stroke-width=".269"></path><path d="M25.396 9.936l-4.188-2.418-4.188 2.418v4.836z" fill="#d3d3d3" fill-rule="evenodd" stroke="#83838a" stroke-width=".269"></path><path d="M.269 9.936l4.188-2.418V2.682L.269 5.1z" fill="none" stroke="#83838a" stroke-width=".269"></path><path d="M8.644 14.772V9.936L4.457 7.518.269 9.936z" fill="none" stroke="#83838a" stroke-width=".269"></path><path d="M.269 5.1v26.597l8.375 4.836h8.376l8.376-4.836V5.1L17.02.265H8.644z" fill="none" stroke="#000000" stroke-width=".529"></path><g transform="scale(.30555 .17641) rotate(45 -330.011 -3086.77)"><circle cx="2136.157" cy="-1146.699" fill="#4286c5" r="19.092"></circle><path d="M2149.44-1150.405v11.77q0 .98-.697 1.676-.696.697-1.675.697h-21.821q-.979 0-1.675-.697-.697-.697-.697-1.675v-11.77q.652.725 1.498 1.29 5.366 3.646 7.367 5.114.845.622 1.372.971.526.349 1.4.711.876.363 1.631.364h.03q.755 0 1.63-.364.874-.363 1.401-.711t1.371-.971q2.52-1.823 7.383-5.115.845-.578 1.483-1.29zm0-4.358q0 1.171-.727 2.238-.726 1.067-1.809 1.823l-6.937 4.818q-.149.104-.63.453-.482.348-.8.563-.32.215-.772.482-.452.266-.852.4-.4.133-.741.133h-.03q-.34 0-.74-.133-.4-.134-.853-.4-.453-.267-.772-.482-.318-.215-.8-.563-.481-.349-.63-.453-1.349-.949-3.884-2.705-2.535-1.757-3.04-2.113-.918-.623-1.733-1.712-.816-1.09-.816-2.024 0-1.157.616-1.927.615-.77 1.756-.771h21.821q.964 0 1.668.696.704.697.704 1.675z" fill="#fff"></path></g></svg></g></g></g><g pointer-events=""></g><g pointer-events=""></g><g pointer-events=""><g opacity="1"><g id="5a4038ad-9ffb-43fe-9ec9-8b53d0bea1ca" transform="translate(0 0)"><svg x="-528" y="305" overflow="visible"><text stroke="#ffffff" stroke-width="4" font-family="Open Sans" y="25.099999999999998" font-size="15pt" fill="#f5b720" font-weight="bold" transform="matrix(0.707 0.409 -0.707 0.409 0 0)" xml:space="preserve"><tspan x="8" dy="0">Amazon</tspan></text><text font-family="Open Sans" y="25.099999999999998" font-size="15pt" fill="#f5b720" font-weight="bold" transform="matrix(0.707 0.409 -0.707 0.409 0 0)" xml:space="preserve"><tspan x="8" dy="0">Amazon</tspan></text></svg></g></g><g opacity="1"><g id="d791999d-da0b-4136-97f4-38274797c165" transform="translate(0 0)"><svg x="-544" y="315" overflow="visible"><text stroke="#ffffff" stroke-width="4" font-family="Open Sans" y="36.5" font-size="25pt" fill="#f5b720" font-weight="bold" transform="matrix(0.707 0.409 -0.707 0.409 0 0)" xml:space="preserve"><tspan x="8" dy="0">S3</tspan><tspan x="8" dy="1.1em">Permanent</tspan><tspan x="8" dy="1.1em">Bucket</tspan></text><text font-family="Open Sans" y="36.5" font-size="25pt" fill="#f5b720" font-weight="bold" transform="matrix(0.707 0.409 -0.707 0.409 0 0)" xml:space="preserve"><tspan x="8" dy="0">S3</tspan><tspan x="8" dy="1.1em">Permanent</tspan><tspan x="8" dy="1.1em">Bucket</tspan></text></svg></g></g><g opacity="1"><g id="d67cac59-1f17-4202-8f43-03f639a29970" transform="translate(0 0)"><svg x="48" y="416" overflow="visible"><text stroke="#ffffff" stroke-width="4" font-family="Open Sans" y="25.099999999999998" font-size="15pt" fill="#f5b720" font-weight="bold" transform="matrix(0.707 0.409 -0.707 0.409 0 0)" xml:space="preserve"><tspan x="8" dy="0">AWS</tspan></text><text font-family="Open Sans" y="25.099999999999998" font-size="15pt" fill="#f5b720" font-weight="bold" transform="matrix(0.707 0.409 -0.707 0.409 0 0)" xml:space="preserve"><tspan x="8" dy="0">AWS</tspan></text></svg></g></g><g opacity="1"><g id="ae5a6e5f-9e7c-49fa-a462-ddaf7cd91631" transform="translate(0 0)"><svg x="32" y="426" overflow="visible"><text stroke="#ffffff" stroke-width="4" font-family="Open Sans" y="36.5" font-size="25pt" fill="#f5b720" font-weight="bold" transform="matrix(0.707 0.409 -0.707 0.409 0 0)" xml:space="preserve"><tspan x="8" dy="0">Lambda</tspan><tspan x="8" dy="1.1em">Function</tspan></text><text font-family="Open Sans" y="36.5" font-size="25pt" fill="#f5b720" font-weight="bold" transform="matrix(0.707 0.409 -0.707 0.409 0 0)" xml:space="preserve"><tspan x="8" dy="0">Lambda</tspan><tspan x="8" dy="1.1em">Function</tspan></text></svg></g></g><g opacity="1"><g id="bb06fa29-0b13-4912-a9be-eabcbea991a9" transform="translate(0 0)"><svg x="208" y="157" overflow="visible"><text stroke="#ffffff" stroke-width="4" font-family="Open Sans" y="25.099999999999998" font-size="15pt" fill="#000000" font-weight="bold" transform="matrix(0.707 0.409 -0.707 0.409 0 0)" xml:space="preserve"><tspan x="8" dy="0">Extract report,</tspan><tspan x="8" dy="1.1em">write record</tspan></text><text font-family="Open Sans" y="25.099999999999998" font-size="15pt" fill="#000000" font-weight="bold" transform="matrix(0.707 0.409 -0.707 0.409 0 0)" xml:space="preserve"><tspan x="8" dy="0">Extract report,</tspan><tspan x="8" dy="1.1em">write record</tspan></text></svg></g></g><g opacity="1"><g id="d45ba31d-259d-4e3a-8e65-5e1e15c86d03" transform="translate(0 0)"><svg x="-112" y="453" overflow="visible"><text stroke="#ffffff" stroke-width="4" font-family="Open Sans" y="25.099999999999998" font-size="15pt" fill="#000000" font-weight="bold" transform="matrix(0.707 0.409 -0.707 0.409 0 0)" xml:space="preserve"><tspan x="8" dy="0">Add message </tspan><tspan x="8" dy="1.1em">to queue</tspan></text><text font-family="Open Sans" y="25.099999999999998" font-size="15pt" fill="#000000" font-weight="bold" transform="matrix(0.707 0.409 -0.707 0.409 0 0)" xml:space="preserve"><tspan x="8" dy="0">Add message </tspan><tspan x="8" dy="1.1em">to queue</tspan></text></svg></g></g><g opacity="1"><g id="522efff2-130f-46f9-9dbb-7f281992a149" transform="translate(0 0)"><svg x="-528" y="583" overflow="visible"><text stroke="#ffffff" stroke-width="4" font-family="Open Sans" y="25.099999999999998" font-size="15pt" fill="#000000" font-weight="bold" transform="matrix(0.707 0.409 -0.707 0.409 0 0)" xml:space="preserve"><tspan x="8" dy="0">Receives an</tspan><tspan x="8" dy="1.1em">email</tspan></text><text font-family="Open Sans" y="25.099999999999998" font-size="15pt" fill="#000000" font-weight="bold" transform="matrix(0.707 0.409 -0.707 0.409 0 0)" xml:space="preserve"><tspan x="8" dy="0">Receives an</tspan><tspan x="8" dy="1.1em">email</tspan></text></svg></g></g><g opacity="1"><g id="d08bd1b4-be9d-4115-b387-7fcdd8c24f5b" transform="translate(0 0)"><svg x="512" y="333" overflow="visible"><text stroke="#ffffff" stroke-width="4" font-family="Open Sans" y="36.5" font-size="25pt" fill="#f5b720" font-weight="bold" transform="matrix(0.707 0.409 -0.707 0.409 0 0)" xml:space="preserve"><tspan x="8" dy="0">Elasticsearch Service</tspan></text><text font-family="Open Sans" y="36.5" font-size="25pt" fill="#f5b720" font-weight="bold" transform="matrix(0.707 0.409 -0.707 0.409 0 0)" xml:space="preserve"><tspan x="8" dy="0">Elasticsearch Service</tspan></text></svg></g></g><g opacity="1"><g id="664c0546-ac32-4e0a-a60a-8d5f758180b2" transform="translate(0 0)"><svg x="528" y="324" overflow="visible"><text stroke="#ffffff" stroke-width="4" font-family="Open Sans" y="25.099999999999998" font-size="15pt" fill="#f5b720" font-weight="bold" transform="matrix(0.707 0.409 -0.707 0.409 0 0)" xml:space="preserve"><tspan x="8" dy="0">Amazon</tspan></text><text font-family="Open Sans" y="25.099999999999998" font-size="15pt" fill="#f5b720" font-weight="bold" transform="matrix(0.707 0.409 -0.707 0.409 0 0)" xml:space="preserve"><tspan x="8" dy="0">Amazon</tspan></text></svg></g></g><g opacity="1"><g id="5fa9f3d5-0481-4110-a31b-55b86c0c3a5c" transform="translate(0 0)"><svg x="-688" y="453" overflow="visible"><text stroke="#ffffff" stroke-width="4" font-family="Open Sans" y="25.099999999999998" font-size="15pt" fill="#f5b720" font-weight="bold" transform="matrix(0.707 0.409 -0.707 0.409 0 0)" xml:space="preserve"><tspan x="8" dy="0">Amazon</tspan></text><text font-family="Open Sans" y="25.099999999999998" font-size="15pt" fill="#f5b720" font-weight="bold" transform="matrix(0.707 0.409 -0.707 0.409 0 0)" xml:space="preserve"><tspan x="8" dy="0">Amazon</tspan></text></svg></g></g><g opacity="1"><g id="da1c76ce-d03d-4e47-bfaf-66ada513594f" transform="translate(0 0)"><svg x="-704" y="463" overflow="visible"><text stroke="#ffffff" stroke-width="4" font-family="Open Sans" y="36.5" font-size="25pt" fill="#f5b720" font-weight="bold" transform="matrix(0.707 0.409 -0.707 0.409 0 0)" xml:space="preserve"><tspan x="8" dy="0">SES</tspan></text><text font-family="Open Sans" y="36.5" font-size="25pt" fill="#f5b720" font-weight="bold" transform="matrix(0.707 0.409 -0.707 0.409 0 0)" xml:space="preserve"><tspan x="8" dy="0">SES</tspan></text></svg></g></g><g opacity="1"><g id="48462cb2-6ab5-479e-836b-a08cc599b508" transform="translate(0 0)"><svg x="-208" y="490" overflow="visible"><text stroke="#ffffff" stroke-width="4" font-family="Open Sans" y="25.099999999999998" font-size="15pt" fill="#f5b720" font-weight="bold" transform="matrix(0.707 0.409 -0.707 0.409 0 0)" xml:space="preserve"><tspan x="8" dy="0">Amazon</tspan></text><text font-family="Open Sans" y="25.099999999999998" font-size="15pt" fill="#f5b720" font-weight="bold" transform="matrix(0.707 0.409 -0.707 0.409 0 0)" xml:space="preserve"><tspan x="8" dy="0">Amazon</tspan></text></svg></g></g><g opacity="1"><g id="6ac22106-25f6-44f6-b5e2-f5d6d9580e15" transform="translate(0 0)"><svg x="-224" y="500" overflow="visible"><text stroke="#ffffff" stroke-width="4" font-family="Open Sans" y="36.5" font-size="25pt" fill="#f5b720" font-weight="bold" transform="matrix(0.707 0.409 -0.707 0.409 0 0)" xml:space="preserve"><tspan x="8" dy="0">S3</tspan><tspan x="8" dy="1.1em">Temporary</tspan><tspan x="8" dy="1.1em">Bucket</tspan></text><text font-family="Open Sans" y="36.5" font-size="25pt" fill="#f5b720" font-weight="bold" transform="matrix(0.707 0.409 -0.707 0.409 0 0)" xml:space="preserve"><tspan x="8" dy="0">S3</tspan><tspan x="8" dy="1.1em">Temporary</tspan><tspan x="8" dy="1.1em">Bucket</tspan></text></svg></g></g><g opacity="1"><g id="b04160af-1977-4abe-a0fc-0b5119c90fe1" transform="translate(0 0)"><svg x="64" y="592" overflow="visible"><text stroke="#ffffff" stroke-width="4" font-family="Open Sans" y="36.5" font-size="25pt" fill="#f5b720" font-weight="bold" transform="matrix(0.707 0.409 -0.707 0.409 0 0)" xml:space="preserve"><tspan x="8" dy="0">SQS</tspan><tspan x="8" dy="1.1em">Queue</tspan></text><text font-family="Open Sans" y="36.5" font-size="25pt" fill="#f5b720" font-weight="bold" transform="matrix(0.707 0.409 -0.707 0.409 0 0)" xml:space="preserve"><tspan x="8" dy="0">SQS</tspan><tspan x="8" dy="1.1em">Queue</tspan></text></svg></g></g><g opacity="1"><g id="8477a38d-42a6-42c6-88e0-16b19d4889e4" transform="translate(0 0)"><svg x="80" y="583" overflow="visible"><text stroke="#ffffff" stroke-width="4" font-family="Open Sans" y="25.099999999999998" font-size="15pt" fill="#f5b720" font-weight="bold" transform="matrix(0.707 0.409 -0.707 0.409 0 0)" xml:space="preserve"><tspan x="8" dy="0">Amazon</tspan></text><text font-family="Open Sans" y="25.099999999999998" font-size="15pt" fill="#f5b720" font-weight="bold" transform="matrix(0.707 0.409 -0.707 0.409 0 0)" xml:space="preserve"><tspan x="8" dy="0">Amazon</tspan></text></svg></g></g><g opacity="1"><g id="b98b69dc-6a6e-4a1f-b977-2b42fff30ea0" transform="translate(0 0)"><svg x="160" y="500" overflow="visible"><text stroke="#ffffff" stroke-width="4" font-family="Open Sans" y="25.099999999999998" font-size="15pt" fill="#000000" font-weight="bold" transform="matrix(0.707 0.409 -0.707 0.409 0 0)" xml:space="preserve"><tspan x="8" dy="0">Get messages from queue</tspan><tspan x="8" dy="1.1em">Invokes Lambda to handle each one</tspan></text><text font-family="Open Sans" y="25.099999999999998" font-size="15pt" fill="#000000" font-weight="bold" transform="matrix(0.707 0.409 -0.707 0.409 0 0)" xml:space="preserve"><tspan x="8" dy="0">Get messages from queue</tspan><tspan x="8" dy="1.1em">Invokes Lambda to handle each one</tspan></text></svg></g></g><g opacity="1"><g id="c88cbdae-0006-4b38-bd03-69f767e363f8" transform="translate(0 0)"><svg x="224" y="352" overflow="visible"><text stroke="#ffffff" stroke-width="4" font-family="Open Sans" y="36.5" font-size="25pt" fill="#000000" font-weight="bold" transform="matrix(0.707 0.409 -0.707 0.409 0 0)" xml:space="preserve"><tspan x="8" dy="0">. . .</tspan></text><text font-family="Open Sans" y="36.5" font-size="25pt" fill="#000000" font-weight="bold" transform="matrix(0.707 0.409 -0.707 0.409 0 0)" xml:space="preserve"><tspan x="8" dy="0">. . .</tspan></text></svg></g></g><g opacity="1"><g id="a495742e-0ff4-41f5-a510-3663d0fc4a04" transform="translate(0 0)"><svg x="-48" y="287" overflow="visible"><text stroke="#ffffff" stroke-width="4" font-family="Open Sans" y="25.099999999999998" font-size="15pt" fill="#000000" font-weight="bold" transform="matrix(0.707 0.409 -0.707 0.409 0 0)" xml:space="preserve"><tspan x="8" dy="0">Invoke</tspan></text><text font-family="Open Sans" y="25.099999999999998" font-size="15pt" fill="#000000" font-weight="bold" transform="matrix(0.707 0.409 -0.707 0.409 0 0)" xml:space="preserve"><tspan x="8" dy="0">Invoke</tspan></text></svg></g></g><g opacity="1"><g id="320ec834-27a8-4acf-b80d-b7778954d977" transform="translate(0 0)"><svg x="80" y="361" overflow="visible"><text stroke="#ffffff" stroke-width="4" font-family="Open Sans" y="25.099999999999998" font-size="15pt" fill="#000000" font-weight="bold" transform="matrix(0.707 0.409 -0.707 0.409 0 0)" xml:space="preserve"><tspan x="8" dy="0">Invoke</tspan></text><text font-family="Open Sans" y="25.099999999999998" font-size="15pt" fill="#000000" font-weight="bold" transform="matrix(0.707 0.409 -0.707 0.409 0 0)" xml:space="preserve"><tspan x="8" dy="0">Invoke</tspan></text></svg></g></g><g opacity="1"><g id="f849407c-78c6-40b3-b86d-0de4b58aeed9" transform="translate(0 0)"><svg x="272" y="472" overflow="visible"><text stroke="#ffffff" stroke-width="4" font-family="Open Sans" y="25.099999999999998" font-size="15pt" fill="#000000" font-weight="bold" transform="matrix(0.707 0.409 -0.707 0.409 0 0)" xml:space="preserve"><tspan x="8" dy="0">Invoke</tspan></text><text font-family="Open Sans" y="25.099999999999998" font-size="15pt" fill="#000000" font-weight="bold" transform="matrix(0.707 0.409 -0.707 0.409 0 0)" xml:space="preserve"><tspan x="8" dy="0">Invoke</tspan></text></svg></g></g><g opacity="1"><g id="cc0b3595-2025-44c7-b012-b7764a605cd8" transform="translate(0 0)"><svg x="400" y="546" overflow="visible"><text stroke="#ffffff" stroke-width="4" font-family="Open Sans" y="25.099999999999998" font-size="15pt" fill="#000000" font-weight="bold" transform="matrix(0.707 0.409 -0.707 0.409 0 0)" xml:space="preserve"><tspan x="8" dy="0">Invoke</tspan></text><text font-family="Open Sans" y="25.099999999999998" font-size="15pt" fill="#000000" font-weight="bold" transform="matrix(0.707 0.409 -0.707 0.409 0 0)" xml:space="preserve"><tspan x="8" dy="0">Invoke</tspan></text></svg></g></g><g opacity="1"><g id="f78b12e8-65ce-4b18-adb9-9facc39fd0a1" transform="translate(0 0)"><svg x="-256" y="93" overflow="visible"><text stroke="#ffffff" stroke-width="4" font-family="Open Sans" y="25.099999999999998" font-size="15pt" fill="#000000" font-weight="bold" transform="matrix(0.707 0.409 -0.707 0.409 0 0)" xml:space="preserve"><tspan x="8" dy="0">Gets email from temporary bucket</tspan><tspan x="8" dy="1.1em">Extracts DMARC report</tspan><tspan x="8" dy="1.1em">Writes report data to ES</tspan><tspan x="8" dy="1.1em">Deletes file from S3</tspan><tspan x="8" dy="1.1em">Deletes message from queue</tspan></text><text font-family="Open Sans" y="25.099999999999998" font-size="15pt" fill="#000000" font-weight="bold" transform="matrix(0.707 0.409 -0.707 0.409 0 0)" xml:space="preserve"><tspan x="8" dy="0">Gets email from temporary bucket</tspan><tspan x="8" dy="1.1em">Extracts DMARC report</tspan><tspan x="8" dy="1.1em">Writes report data to ES</tspan><tspan x="8" dy="1.1em">Deletes file from S3</tspan><tspan x="8" dy="1.1em">Deletes message from queue</tspan></text></svg></g></g></g></g></svg>